<?xml version="1.0" standalone="no"?>
<!DOCTYPE svg PUBLIC "-//W3C//DTD SVG 20010904//EN"
 "http://www.w3.org/TR/2001/REC-SVG-20010904/DTD/svg10.dtd">
<svg version="1.0" xmlns="http://www.w3.org/2000/svg"
 width="70.000000pt" height="70.000000pt" viewBox="0 0 70.000000 70.000000"
 preserveAspectRatio="xMidYMid meet">
<metadata>
Created by potrace 1.11, written by Peter Selinger 2001-2013
</metadata>
<g transform="translate(0.000000,70.000000) scale(0.100000,-0.100000)"
fill="#000000" stroke="none">
<path d="M255 686 c-22 -7 -56 -21 -75 -30 -38 -20 -140 -121 -140 -140 0 -6
-8 -24 -17 -41 -20 -37 -24 -216 -5 -223 7 -2 9 -8 6 -13 -6 -11 34 -81 68
-120 25 -27 118 -94 118 -84 0 3 8 1 19 -4 26 -14 79 -23 126 -22 139 5 246
77 306 206 22 49 27 73 26 128 -1 37 1 67 6 67 4 0 3 8 -2 18 -6 9 -21 42 -34
72 -53 117 -163 191 -292 195 -38 2 -88 -3 -110 -9z"/>
</g>
</svg>
